<svg width="50" height="50" viewBox="0 0 50 50" fill="none" xmlns="http://www.w3.org/2000/svg">
<path fill-rule="evenodd" clip-rule="evenodd" d="M9.10203 7.76885C8.93394 7.20064 8.33706 6.87627 7.76885 7.04435C7.20064 7.21243 6.87627 7.80932 7.04435 8.37753L8.4189 13.0243L8.41905 13.0248L13.0774 28.8017L13.0775 28.802C13.7105 30.9428 15.7236 32.3823 17.9711 32.3823H35.7028C37.9489 32.3823 39.9593 30.9443 40.5942 28.8028L40.5945 28.8017L43.7969 17.9585L43.797 17.9582C44.7471 14.7445 42.2354 11.6475 38.9053 11.6475H10.2494L9.10203 7.76885ZM15.1353 28.1936L10.8834 13.7933H38.9053C40.9112 13.7933 42.2524 15.6144 41.7392 17.35L41.739 17.3504L38.5369 28.1929L38.5366 28.1939C38.1836 29.3825 37.0422 30.2365 35.7028 30.2365H17.9711C16.6288 30.2365 15.4859 29.3796 15.1353 28.1936ZM18.7223 36.0456C17.6675 36.0456 16.6558 36.4646 15.91 37.2106C15.1641 37.9565 14.7451 38.9681 14.7451 40.023C14.7451 41.0779 15.1641 42.0895 15.91 42.8354C16.6558 43.5814 17.6675 44.0004 18.7223 44.0004C19.7772 44.0004 20.7888 43.5814 21.5346 42.8354C22.2805 42.0895 22.6995 41.0779 22.6995 40.023C22.6995 38.9681 22.2805 37.9565 21.5346 37.2106C20.7888 36.4646 19.7772 36.0456 18.7223 36.0456ZM17.4273 38.7278C17.7708 38.3843 18.2366 38.1914 18.7223 38.1914C19.208 38.1914 19.6738 38.3843 20.0173 38.7278C20.3607 39.0713 20.5537 39.5372 20.5537 40.023C20.5537 40.5088 20.3607 40.9747 20.0173 41.3182C19.6738 41.6617 19.208 41.8546 18.7223 41.8546C18.2366 41.8546 17.7708 41.6617 17.4273 41.3182C17.0839 40.9747 16.8909 40.5088 16.8909 40.023C16.8909 39.5372 17.0839 39.0713 17.4273 38.7278ZM34.2119 36.0456C33.1571 36.0456 32.1454 36.4646 31.3996 37.2106C30.6537 37.9565 30.2347 38.9681 30.2347 40.023C30.2347 41.0779 30.6537 42.0895 31.3996 42.8354C32.1454 43.5814 33.1571 44.0004 34.2119 44.0004C35.2668 44.0004 36.2784 43.5814 37.0243 42.8354C37.7701 42.0895 38.1891 41.0779 38.1891 40.023C38.1891 38.9681 37.7701 37.9565 37.0243 37.2106C36.2784 36.4646 35.2668 36.0456 34.2119 36.0456ZM32.917 38.7278C33.2604 38.3843 33.7262 38.1914 34.2119 38.1914C34.6976 38.1914 35.1634 38.3843 35.5069 38.7278C35.8504 39.0713 36.0433 39.5372 36.0433 40.023C36.0433 40.5088 35.8504 40.9747 35.5069 41.3182C35.1634 41.6617 34.6976 41.8546 34.2119 41.8546C33.7262 41.8546 33.2604 41.6617 32.917 41.3182C32.5735 40.9747 32.3805 40.5088 32.3805 40.023C32.3805 39.5372 32.5735 39.0713 32.917 38.7278ZM15.8181 16.6821C15.2255 16.6821 14.7451 17.1624 14.7451 17.755C14.7451 18.3475 15.2255 18.8279 15.8181 18.8279H25.4991H35.1801H37.1163C37.7088 18.8279 38.1892 18.3475 38.1892 17.755C38.1892 17.1624 37.7088 16.6821 37.1163 16.6821H35.1801H25.4991H15.8181Z" fill="black"/>
</svg>
