<svg width="50" height="50" viewBox="0 0 50 50" fill="none" xmlns="http://www.w3.org/2000/svg">
<path d="M35.735 42.1875H20.6019C14.1414 42.1875 8.88531 36.9306 8.88531 30.4689V18.4572C8.88531 12.4504 5.8919 6.8904 0.878064 3.58398C-0.0223593 2.99023 -0.270947 1.77891 0.322696 0.878328C0.916338 -0.0223496 2.12735 -0.271079 3.02797 0.322863C5.89015 2.21035 8.21219 4.69979 9.87263 7.56598C10.2315 7.96803 13.1249 11.0354 17.8682 11.0354H40.355C46.49 10.9206 51.292 17.0785 49.688 23.0013L47.0994 33.3206C45.7898 38.5413 41.1166 42.1875 35.735 42.1875V42.1875ZM12.2982 13.8382C12.6228 15.3383 12.7909 16.8851 12.7909 18.4572V30.4689C12.7909 34.7767 16.2949 38.2813 20.6019 38.2813H35.735C39.3227 38.2813 42.4381 35.8505 43.3112 32.37L45.8998 22.0508C46.853 18.5314 43.9993 14.8736 40.355 14.9416H17.8681C15.7228 14.9416 13.8556 14.479 12.2982 13.8382V13.8382ZM19.6256 47.5586C19.6256 46.2103 18.5327 45.1172 17.1846 45.1172C13.9457 45.2462 13.9486 49.8723 17.1846 50C18.5327 50 19.6256 48.9069 19.6256 47.5586ZM39.0556 47.5586C39.0556 46.2103 37.9628 45.1172 36.6147 45.1172C33.3758 45.2462 33.3786 49.8723 36.6147 50C37.9628 50 39.0556 48.9069 39.0556 47.5586ZM42.3078 20.801C42.3078 19.7223 41.4335 18.8478 40.355 18.8478H18.6492C16.0582 18.951 16.0602 22.6518 18.6492 22.7541H40.355C41.4335 22.7541 42.3078 21.8797 42.3078 20.801Z" fill="#3D3D3D"/>
</svg>
