<svg width="33" height="33" viewBox="0 0 33 33" fill="none" xmlns="http://www.w3.org/2000/svg">
<path d="M12.7244 28.9192C13.3638 28.3298 13.874 27.6144 14.2231 26.8181C14.5721 26.0217 14.7523 25.1616 14.7523 24.2921C14.7523 23.4226 14.5721 22.5625 14.2231 21.7661C13.874 20.9697 13.3638 20.2543 12.7244 19.665C12.1351 19.0257 11.4197 18.5154 10.6233 18.1664C9.82692 17.8173 8.96684 17.6371 8.09734 17.6371C7.22783 17.6371 6.36775 17.8173 5.57137 18.1664C4.77498 18.5154 4.05957 19.0257 3.47027 19.665C1.15673 21.9786 1.15673 31.2327 1.15673 31.2327C1.15673 31.2327 10.4109 31.2327 12.7244 28.9192Z" stroke="#000001" stroke-width="2.31353" stroke-linecap="round" stroke-linejoin="round"/>
<path d="M29.8908 2.4986C29.0893 1.70737 28.0268 1.23559 26.9024 1.1717C25.778 1.10781 24.6689 1.45621 23.783 2.15157L10.4108 11.5677L8.76821 17.6754C10.2757 17.8664 11.6722 18.5687 12.7244 19.665C13.8207 20.7172 14.523 22.1136 14.714 23.6212L20.8217 21.9786L30.2378 8.60633C30.9332 7.72043 31.2816 6.61133 31.2177 5.48693C31.1538 4.36254 30.682 3.30004 29.8908 2.4986V2.4986Z" stroke="#000001" stroke-width="2.31353" stroke-linecap="round" stroke-linejoin="round"/>
<path d="M1.15673 31.2327L8.67572 23.7137" stroke="#000001" stroke-width="2.31353" stroke-linecap="round" stroke-linejoin="round"/>
</svg>
