<svg width="50" height="50" viewBox="0 0 50 50" fill="none" xmlns="http://www.w3.org/2000/svg">
<path d="M13 13V11C13 9.93913 13.4214 8.92172 14.1716 8.17157C14.9217 7.42143 15.9391 7 17 7H37C38.0609 7 39.0783 7.42143 39.8284 8.17157C40.5786 8.92172 41 9.93913 41 11V39C41 40.0609 40.5786 41.0783 39.8284 41.8284C39.0783 42.5786 38.0609 43 37 43H17C15.9391 43 14.9217 42.5786 14.1716 41.8284C13.4214 41.0783 13 40.0609 13 39V37" stroke="black" stroke-width="2.3" stroke-linecap="round" stroke-linejoin="round"/>
<path d="M4 25H18M18 25L12 31M18 25L12 19" stroke="black" stroke-width="2.3" stroke-linecap="round" stroke-linejoin="round"/>
</svg>
