<svg width="50" height="50" viewBox="0 0 50 50" fill="none" xmlns="http://www.w3.org/2000/svg">
<path d="M27 25H41M41 25L35 31M41 25L35 19M37 13V11C37 9.93913 36.5786 8.92172 35.8284 8.17157C35.0783 7.42143 34.0609 7 33 7H13C11.9391 7 10.9217 7.42143 10.1716 8.17157C9.42143 8.92172 9 9.93913 9 11V39C9 40.0609 9.42143 41.0783 10.1716 41.8284C10.9217 42.5786 11.9391 43 13 43H33C34.0609 43 35.0783 42.5786 35.8284 41.8284C36.5786 41.0783 37 40.0609 37 39V37" stroke="black" stroke-width="2.3" stroke-linecap="round" stroke-linejoin="round"/>
</svg>
