<svg width="53" height="53" viewBox="0 0 53 53" fill="none" xmlns="http://www.w3.org/2000/svg">
<path d="M18.55 19.875C18.55 19.5236 18.6896 19.1866 18.9381 18.9381C19.1866 18.6896 19.5236 18.55 19.875 18.55H33.125C33.4764 18.55 33.8134 18.6896 34.0619 18.9381C34.3104 19.1866 34.45 19.5236 34.45 19.875C34.45 20.2264 34.3104 20.5634 34.0619 20.8119C33.8134 21.0604 33.4764 21.2 33.125 21.2H19.875C19.5236 21.2 19.1866 21.0604 18.9381 20.8119C18.6896 20.5634 18.55 20.2264 18.55 19.875ZM19.875 26.5C19.5236 26.5 19.1866 26.6396 18.9381 26.8881C18.6896 27.1366 18.55 27.4736 18.55 27.825C18.55 28.1764 18.6896 28.5134 18.9381 28.7619C19.1866 29.0104 19.5236 29.15 19.875 29.15H33.125C33.4764 29.15 33.8134 29.0104 34.0619 28.7619C34.3104 28.5134 34.45 28.1764 34.45 27.825C34.45 27.4736 34.3104 27.1366 34.0619 26.8881C33.8134 26.6396 33.4764 26.5 33.125 26.5H19.875ZM18.55 35.775C18.55 35.4236 18.6896 35.0866 18.9381 34.8381C19.1866 34.5896 19.5236 34.45 19.875 34.45H25.175C25.5264 34.45 25.8634 34.5896 26.1119 34.8381C26.3604 35.0866 26.5 35.4236 26.5 35.775C26.5 36.1264 26.3604 36.4634 26.1119 36.7119C25.8634 36.9604 25.5264 37.1 25.175 37.1H19.875C19.5236 37.1 19.1866 36.9604 18.9381 36.7119C18.6896 36.4634 18.55 36.1264 18.55 35.775ZM15.9 6.62499C15.9 6.27358 16.0396 5.93656 16.2881 5.68807C16.5366 5.43959 16.8736 5.29999 17.225 5.29999C17.5764 5.29999 17.9134 5.43959 18.1619 5.68807C18.4104 5.93656 18.55 6.27358 18.55 6.62499V7.94999H25.175V6.62499C25.175 6.27358 25.3146 5.93656 25.5631 5.68807C25.8116 5.43959 26.1486 5.29999 26.5 5.29999C26.8514 5.29999 27.1884 5.43959 27.4369 5.68807C27.6854 5.93656 27.825 6.27358 27.825 6.62499V7.94999H34.45V6.62499C34.45 6.27358 34.5896 5.93656 34.8381 5.68807C35.0866 5.43959 35.4236 5.29999 35.775 5.29999C36.1264 5.29999 36.4634 5.43959 36.7119 5.68807C36.9604 5.93656 37.1 6.27358 37.1 6.62499V7.94999H38.425C39.4792 7.94999 40.4903 8.36878 41.2358 9.11424C41.9812 9.8597 42.4 10.8708 42.4 11.925V24.4648C41.5361 24.8358 40.7252 25.3711 40.0203 26.0786L39.75 26.3489V11.925C39.75 11.5736 39.6104 11.2366 39.3619 10.9881C39.1134 10.7396 38.7764 10.6 38.425 10.6H14.575C14.2236 10.6 13.8866 10.7396 13.6381 10.9881C13.3896 11.2366 13.25 11.5736 13.25 11.925V43.725C13.25 44.0764 13.3896 44.4134 13.6381 44.6619C13.8866 44.9104 14.2236 45.05 14.575 45.05H24.433L24.0011 46.7804C23.9233 47.0914 23.8756 47.3979 23.858 47.7H14.575C13.5208 47.7 12.5097 47.2812 11.7643 46.5357C11.0188 45.7903 10.6 44.7792 10.6 43.725V11.925C10.6 10.8708 11.0188 9.8597 11.7643 9.11424C12.5097 8.36878 13.5208 7.94999 14.575 7.94999H15.9V6.62499Z" fill="black"/>
<path d="M40.0818 39.4384L37.6152 36.9452L41.9431 32.6236L41.5615 32.242C41.4527 32.1332 41.2898 32.0788 41.0729 32.0788C40.8559 32.0788 40.6927 32.1332 40.5832 32.242L35.4114 37.4138L34.662 36.7036L39.8677 31.4926C40.2104 31.1499 40.6178 30.9785 41.0898 30.9785C41.5619 30.9785 41.9693 31.1499 42.312 31.4926L42.6936 31.8742L43.5702 30.9965C43.7412 30.8255 43.9419 30.74 44.1723 30.74C44.4027 30.74 44.6034 30.8255 44.7744 30.9965L46.1174 32.3406C46.2891 32.5116 46.3683 32.6989 46.3549 32.9024C46.3407 33.1052 46.2481 33.2925 46.0771 33.4642L40.0818 39.4384ZM32.1466 47.3534H29.68V44.8868L36.8392 37.7212L39.3324 40.1888L32.1466 47.3534Z" fill="black"/>
</svg>
