<svg width="40" height="40" viewBox="0 0 40 40" fill="none" xmlns="http://www.w3.org/2000/svg">
<path d="M20 36C28.8366 36 36 28.8366 36 20C36 11.1634 28.8366 4 20 4C11.1634 4 4 11.1634 4 20C4 28.8366 11.1634 36 20 36Z" stroke="#121212" stroke-width="2" stroke-linecap="round" stroke-linejoin="round"/>
<path d="M20 21.8823C23.1188 21.8823 25.6471 19.354 25.6471 16.2353C25.6471 13.1165 23.1188 10.5882 20 10.5882C16.8812 10.5882 14.3529 13.1165 14.3529 16.2353C14.3529 19.354 16.8812 21.8823 20 21.8823Z" stroke="#121212" stroke-width="2" stroke-linecap="round" stroke-linejoin="round"/>
<path d="M8.57143 30.5142C9.76578 29.1182 11.4444 27.9645 13.4459 27.1639C15.4473 26.3633 17.7044 25.9428 20 25.9428C22.2956 25.9428 24.5527 26.3633 26.5541 27.1639C28.5556 27.9645 30.2342 29.1182 31.4286 30.5142" stroke="#121212" stroke-width="2" stroke-linecap="round" stroke-linejoin="round"/>
</svg>
